<?xml version="1.0" standalone="no"?>
<!DOCTYPE svg PUBLIC "-//W3C//DTD SVG 20010904//EN"
 "http://www.w3.org/TR/2001/REC-SVG-20010904/DTD/svg10.dtd">
<svg version="1.0" xmlns="http://www.w3.org/2000/svg"
 width="1em" height="1em" viewBox="0 0 512.000000 512.000000"
 preserveAspectRatio="xMidYMid meet">

<g transform="translate(0.000000,512.000000) scale(0.100000,-0.100000)"
fill="#731816" stroke="currentColor">
<path d="M2400 5109 c-1226 -75 -2223 -1013 -2376 -2234 -21 -170 -21 -460 0
-630 102 -813 583 -1524 1304 -1924 501 -278 1107 -379 1677 -281 391 68 772
235 1104 483 124 92 396 364 488 488 477 638 634 1421 438 2183 -215 842 -844
1516 -1668 1790 -306 102 -641 145 -967 125z m-175 -1164 c131 -35 238 -118
296 -230 19 -36 36 -65 39 -65 3 0 21 30 40 66 83 157 239 244 436 244 112 0
197 -18 414 -89 327 -105 519 -146 653 -139 l77 5 0 -1108 0 -1109 -26 -6
c-15 -4 -72 -4 -128 -1 -141 8 -282 41 -583 138 -202 65 -314 89 -409 89 -196
0 -358 -96 -435 -259 -19 -38 -37 -70 -40 -70 -4 -1 -10 11 -14 27 -11 45 -72
136 -119 180 -116 107 -289 145 -486 108 -41 -8 -158 -42 -260 -75 -213 -68
-347 -104 -474 -126 -90 -15 -212 -20 -240 -9 -14 6 -16 113 -16 1113 l0 1107
70 -4 c133 -8 338 36 670 143 96 31 202 62 235 70 84 18 229 18 300 0z"/>
</g>
</svg>
